<svg width="31" height="31" viewBox="0 0 31 31" fill="none" xmlns="http://www.w3.org/2000/svg">
<path d="M15.5 13.4286C14.356 13.4286 13.4286 14.356 13.4286 15.5C13.4286 16.644 14.356 17.5714 15.5 17.5714C16.072 17.5714 16.5899 17.3396 16.9647 16.9647M15.5 13.4286C16.644 13.4286 17.5714 14.356 17.5714 15.5C17.5714 16.072 17.3396 16.5899 16.9647 16.9647M15.5 13.4286V5.14286M20.3333 20.3333L16.9647 16.9647M30 15.5C30 23.5081 23.5081 30 15.5 30C7.49187 30 1 23.5081 1 15.5C1 7.49187 7.49187 1 15.5 1C23.5081 1 30 7.49187 30 15.5Z" stroke="#FE4646" stroke-width="2" stroke-linecap="square"/>
</svg>
